<svg xmlns="http://www.w3.org/2000/svg" viewBox="0 0 517.53402 456.74005">
  <g id="a2a6b697-b68a-443f-bdf1-6ef273c66cf4" data-name="Layer 2">
    <g id="e2e945d1-5243-420f-ac98-df101f65c8ae" data-name="Layer 1">
      <g id="b868a657-3bb7-41e0-b045-e96d586ebf0b" data-name="Layer 2">
        <g id="ae1a9660-f67d-43cb-b38a-392530146270" data-name="Layer 4">
          <path d="M432.304,126.49V92.39a1.34,1.34,0,0,0-1.289-1.38911q-.03045-.00114-.061-.00089h-34.1a1.35,1.35,0,0,0-1.35,1.35V124l-87.16,87.13h-54.78a1.4,1.4,0,0,0-1.4,1.39v57.26a1.4,1.4,0,0,0,1.4,1.39h57.26a1.39,1.39,0,0,0,1.39-1.39v-54l88-88h30.77A1.35,1.35,0,0,0,432.304,126.49Z" fill="#e2e5e5"/>
          <path d="M445.864,29.52V1.34A1.34,1.34,0,0,0,444.524,0h-28.18a1.35,1.35,0,0,0-1.3,1.34V27.62l-73.1,73.1h-45.9a1.3,1.3,0,0,0-1.29,1.3v47.77a1.29,1.29,0,0,0,1.29,1.29h47.8a1.3,1.3,0,0,0,1.3-1.29V104.64l73.78-73.77h25.6A1.35,1.35,0,0,0,445.864,29.52Z" fill="#e2e5e5"/>
          <path d="M517.534,119V95.76a.85.85,0,0,0-.85-.85h-23.24a.85.85,0,0,0-.84.85v21.46l-59.05,59h-36.71a1.35,1.35,0,0,0-1.34,1.35v38a1.36,1.36,0,0,0,1.35,1.35h38a1.29,1.29,0,0,0,1.29-1.29h0v-36.2l59.58-59.59h20.92a.85.85,0,0,0,.8891-.809Z" fill="#e2e5e5"/>
          <path d="M375.864,241.87a.2.2,0,0,1,.16.32c-4.68,5.5-62.84,70.1-90.91,100.9-19.92,21.89-40,43.61-60,65.42h0l-54-58.95q-61.38-67-122.94-134c-4.37-4.74-4.76-7.63-.67-12.72,24-29.93,47.68-60.11,71.41-90.25,2.46-3.15,4.73-5.69,9.34-5.67,43,.17,86.08-.08,129.12,0,4,0,13.85-.07,15.11,0h0c-.82,1.3-39.18,39.79-39.26,39.87h0v27.93a1.5,1.5,0,0,1-1.48995,1.51q-.01.00006-.02,0h-34.21a1.51,1.51,0,0,1-1.51-1.51V140.59a1.52,1.52,0,0,1,1.51-1.52h27.54a.85.85,0,0,0,.64-.27c1.41-1.5,11.71-13.12,11.8-13.24h-8.14c-28.4-.09-56.79.06-85.17-.25-5.87-.06-9.47,2.05-12.86,6.63q-26.76,36.11-54.06,71.84c-3.43,4.47-3.55,7.16.36,11.39Q151.864,295.4,225.724,376c4.71,5.14,6.94,2.85,10.46-1.08,39.48-44.26,79.44-88.8,119-133a.21.21,0,0,1,.14-.07Z" fill="#e2e5e5"/>
          <path d="M364.294,54.48v-47c0-2.5-1.4-3.32-3.32-3.32h-43.65a8.66,8.66,0,0,0-8.66,8.66h0V51.41a1.84,1.84,0,0,1-.55,1.32l-18.67,18.68a1.88,1.88,0,0,1-1.33.55h-177a5.51974,5.51974,0,0,0-1.66.25l-.33.1-.25.08c-4.94,1.51-9,4.55-12.81,9.58-29.56,39.4-60.47,80-91.83,120.62-5.95,7.69-5.64,13.79,1,21,35.25,38.53,70.91,77.91,105.39,116q13.56,15,27.12,29.93c5.48,6.06,11,12.08,16.44,18.13,18.67,20.53,38,41.78,56.64,62.89,2.73,3.06,6.1,6.2,10.61,6.2,4.8,0,8.16-3.47,10.95-6.72,11.85-13.87,24.32-27.66,36.37-41q7.19-7.93,14.3-15.86L302.744,371l9.51-10.75,42.28-48c18.89-21.4,38-43.14,57.86-65.6a6.44938,6.44938,0,0,0,1.13-1.87,1.77,1.77,0,0,0-1.75-2.6h-21a1.52,1.52,0,0,0-.75.19l-3.39,1.89a1.76019,1.76019,0,0,0-.5.4l-159.89,181c-.68.78-9,2.51-9.67,1.75l-195-214.22a1.88,1.88,0,0,1,.11583-2.6562l.00417-.0038,84.25-100.63c.26-.34,8.1-11.75,14.76-11.75h159.52a1.88,1.88,0,0,0,1.33-.55l39.37-39.39Z" fill="#616262"/>
          <path d="M407.964,241.89a.37.37,0,0,1,.27.61c-34.74,39.38-67.44,76.5-100.19,113.55q-14.51,16.47-29.07,32.95c-17,18.94-34.24,37.62-50.77,56.95-5,5.88-7.47,6.43-12.78.44-24.11-27.25-48.69-54.1-73.14-81.06Q76.104,292.28,9.754,219.38c-4.64-5.06-4.92-8.06-.69-13.54q46.33-60,91.89-120.65c3-3.93,6-6.36,9.82-7.54l.58-.17h179.69a1,1,0,0,0,.69-.28l22.78-22.79a.37991.37991,0,0,0,.12-.29V10.66a1,1,0,0,1,1-1h47.89a1,1,0,0,1,1,1v47.6a1.26,1.26,0,0,1-1.26,1.26h-42.14a.33.33,0,0,0-.23.1l-40.52,40.51a2,2,0,0,1-1.42.59H119.044a15,15,0,0,0-6.7,5.13q-37.69,48.39-75.93,96.33c-4.69,5.83-4.23,9.28.58,14.62q87.85,97.71,175.22,195.87c4.26,4.78,7.72,6.62,11.17,3.93,1.14-.91,7.54-7.3,9.22-9.16q42.48-46.79,84.84-93.65c21.39-23.79,42.6-47.79,63.93-71.7a.57.57,0,0,1,.5-.22Z" fill="#e2e5e5"/>
        </g>
      </g>
    </g>
  </g>
</svg>
